<?xml version="1.0" encoding="UTF-8"?>
<!DOCTYPE svg PUBLIC "-//W3C//DTD SVG 1.1//EN" "http://www.w3.org/Graphics/SVG/1.1/DTD/svg11.dtd">
<!-- Creator: CorelDRAW X7 -->
<svg xmlns="http://www.w3.org/2000/svg" xml:space="preserve" width="187.803mm" height="187.803mm" version="1.1" style="shape-rendering:geometricPrecision; text-rendering:geometricPrecision; image-rendering:optimizeQuality; fill-rule:evenodd; clip-rule:evenodd"
viewBox="0 0 18780 18780"
 xmlns:xlink="http://www.w3.org/1999/xlink">
 <defs>
  <style type="text/css">
   <![CDATA[
    .fil2 {fill:#FEFEFE}
    .fil0 {fill:#FEFEFE}
    .fil1 {fill:#1D1819}
    .fil3 {fill:#EEEEEF;fill-opacity:0.419608}
   ]]>
  </style>
 </defs>
 <g id="Layer_x0020_1">
  <metadata id="CorelCorpID_0Corel-Layer"/>
  <g id="_2121770287936">
   <rect class="fil0" width="18780" height="18780"/>
   <g>
    <rect class="fil1" x="1768" y="1768" width="15244" height="15244" rx="1667" ry="1667"/>
    <g>
     <g>
      <path class="fil2" d="M5879 8740c69,22 56,65 -28,95l-744 266 0 267 1010 -363c0,0 136,-50 191,-120 56,-70 31,-171 -187,-240 -193,-74 -440,-98 -641,-76 -201,22 -344,73 -344,73l-29 9 0 278 496 -175c84,-30 208,-36 276,-14zm1132 503l0 -2015 118 0 0 2015 -118 0zm-822 -48l0 148 19 0 0 -126 43 126 18 0 43 -124 0 124 19 0 0 -148 -26 0 -36 103 -8 24 -7 -22 -35 -105 -30 0zm-89 17l0 131 20 0 0 -131 49 0 0 -17 -118 0 0 17 49 0zm-1861 -247c-84,30 -208,37 -277,14 -68,-22 -55,-65 29,-95l477 -171 0 -268 -663 235c0,0 -160,52 -255,122 -102,76 -64,207 159,270 241,79 484,95 713,58 15,-3 31,-5 46,-8l0 -240 -229 83zm964 -1219l0 684c288,139 515,0 515,-367 0,-377 -133,-544 -524,-679 -154,-52 -440,-138 -637,-174l0 2042 463 147 0 -1713c0,-80 35,-134 93,-115 75,20 90,94 90,175z"/>
      <path class="fil2" d="M9826 7711c133,0 241,108 241,242 0,133 -108,242 -241,242l-1258 0c-230,0 -417,186 -417,416l0 463 333 0 0 -468c0,-130 105,-235 235,-235l1263 0c231,0 418,-187 418,-418 0,-231 -187,-418 -418,-418l-1831 0 0 176 1675 0zm3207 -176l0 575c0,144 117,261 261,261l1394 0c145,0 263,118 263,263 0,146 -118,263 -263,263l-1655 0 0 177 1811 0c243,0 440,-197 440,-440 0,-243 -197,-439 -440,-439l-1373 0c-58,0 -105,-47 -105,-105l0 -379 1858 0 0 -176 -2191 0zm-1289 0c-230,0 -417,186 -417,416l0 711c0,130 -105,235 -235,235l-802 0 0 177 954 0c230,0 416,-187 416,-417l0 -710c0,-130 106,-236 236,-236l816 0 0 -176 -968 0z"/>
     </g>
     <path class="fil2" d="M3887 9874l349 0c22,0 41,8 57,23 15,16 23,35 23,57 0,22 -8,41 -23,56 -16,16 -35,24 -57,24l-241 0c-12,0 -23,4 -32,13 -8,9 -13,19 -13,32l0 89 -63 0 0 -89c0,-21 7,-40 23,-56 15,-15 34,-23 56,-23l240 0c13,0 24,-5 33,-14 9,-9 14,-20 14,-32 0,-13 -5,-24 -14,-33 -9,-9 -20,-14 -33,-14l-319 0 0 -33zm1019 0l64 0 0 210c0,14 4,26 14,36 10,9 22,14 36,14l296 0 0 34 -326 0c-23,0 -43,-8 -59,-24 -16,-16 -25,-36 -25,-60l0 -210zm1060 230l-49 64 -42 0 213 -277c8,-11 20,-17 34,-17 15,0 26,5 35,17l213 277 -80 0 -50 -64 -274 0zm249 -34l-112 -144 -111 144 223 0zm837 -36l-106 0c-23,0 -43,-9 -59,-25 -17,-16 -25,-36 -25,-60l0 -75 64 0 0 75c0,14 5,26 15,36 10,10 22,15 37,15l212 0c14,0 26,-5 37,-15 10,-10 15,-22 15,-36l0 -75 63 0 0 75c0,24 -8,44 -24,60 -17,16 -36,25 -60,25l-105 0 0 134 -64 0 0 -134zm1039 -160l185 0 0 33 -156 0c-12,0 -23,5 -32,14 -9,8 -13,19 -13,32l0 135c0,22 -8,41 -23,57 -16,15 -35,23 -57,23l-182 0 0 -34 153 0c13,0 23,-4 32,-13 9,-9 13,-19 13,-32l0 -136c0,-22 8,-40 24,-56 15,-15 34,-23 56,-23zm965 34l-200 0 0 -34 465 0 0 34 -201 0 0 260 -64 0 0 -260zm792 196l-49 64 -43 0 214 -277c8,-11 20,-17 34,-17 14,0 26,5 34,17l214 277 -81 0 -49 -64 -274 0zm248 -34l-111 -144 -111 144 222 0zm792 -162l-201 0 0 -34 465 0 0 34 -200 0 0 260 -64 0 0 -260zm844 -34l64 0 0 294 -64 0 0 -294zm717 210c0,14 5,26 15,36 10,9 22,14 37,14l222 0c15,0 27,-5 37,-14 10,-10 15,-22 15,-36l0 -130c0,-13 -5,-24 -14,-33 -9,-9 -20,-14 -32,-14l-234 0c-13,0 -23,5 -32,14 -9,9 -14,20 -14,33l0 130zm20 84c-23,0 -43,-8 -59,-25 -17,-16 -25,-36 -25,-59l0 -130c0,-22 8,-41 24,-57 15,-15 34,-23 56,-23l294 0c22,0 41,8 56,23 16,16 24,35 24,57l0 130c0,23 -8,43 -25,59 -16,17 -36,25 -59,25l-286 0zm1023 -234l0 234 -64 0 0 -262c0,-9 3,-17 8,-23 5,-6 11,-9 19,-9 4,0 8,1 11,2 3,1 7,4 12,7l332 225 0 -234 64 0 0 262c0,9 -3,16 -7,23 -5,6 -12,9 -20,9 -4,0 -8,-1 -11,-2 -3,-2 -7,-4 -12,-8l-332 -224zm971 -60l419 0 0 33 -355 0 0 73c0,5 2,10 6,14 4,4 9,6 14,6l263 0c24,0 44,8 60,24 16,16 24,36 24,60 0,23 -8,43 -25,59 -16,17 -36,25 -59,25l-347 0 0 -34 317 0c14,0 26,-5 35,-14 10,-10 15,-22 15,-36 0,-14 -5,-26 -15,-36 -9,-10 -21,-14 -35,-14l-267 0c-13,0 -25,-5 -35,-15 -10,-10 -15,-22 -15,-35l0 -110z"/>
     <g>
      <path class="fil2" d="M8927 10808c-105,0 -201,43 -270,112 -69,69 -111,164 -111,269 0,106 42,201 111,270 69,69 165,112 270,112 105,0 201,-43 270,-112 69,-69 112,-164 112,-270 0,-105 -43,-200 -112,-269 -69,-69 -165,-112 -270,-112zm0 69c86,0 165,35 221,91 57,57 92,135 92,221 0,86 -35,165 -92,221 -56,57 -135,92 -221,92 -86,0 -164,-35 -221,-92 -56,-56 -91,-135 -91,-221 0,-86 35,-164 91,-221 57,-56 135,-91 221,-91z"/>
      <polygon class="fil2" points="9402,10888 9690,11188 9402,11488 9452,11536 9738,11238 10023,11536 10073,11488 9785,11188 10073,10888 10023,10841 9738,11138 9452,10841 "/>
      <path class="fil2" d="M10238 10830l0 35 0 626 0 35 34 0 609 0 34 0 0 -35 0 -626 0 -35 -34 0 -609 0 -34 0zm69 69l539 0 0 558 -539 0 0 -558z"/>
      <path class="fil2" d="M8094 10884l-178 308 -179 309 -30 51 60 0 357 0 357 0 60 0 -30 -51 -179 -309 -178 -308 -30 -52 -30 52zm30 86l149 257 148 256 -297 0 -297 0 148 -256 149 -257z"/>
      <path class="fil2" d="M11017 11498c-6,6 -10,14 -10,23 0,9 4,18 10,24 6,6 14,9 23,9 9,0 18,-3 24,-9 6,-6 9,-15 9,-24 0,-9 -3,-17 -9,-23 -6,-6 -15,-10 -24,-10 -9,0 -17,4 -23,10z"/>
     </g>
    </g>
    <path class="fil3" d="M4210 2168l10853 0c836,0 1520,684 1520,1520l0 10854c0,490 -236,928 -599,1207l0 -11227c0,-917 -751,-1667 -1668,-1667l-11375 0c272,-413 740,-687 1269,-687z"/>
   </g>
  </g>
 </g>
</svg>
